<svg xmlns="http://www.w3.org/2000/svg" viewBox="1.0400009155273438 1.5799999237060547 197.38168334960938 20.190940856933594"><g xmlns="http://www.w3.org/2000/svg" fill="#6b7280">
  <path d="M151.05 21.71 c-2.35 -0.46 -3.99 -1.29 -5.52 -2.81 -1.25 -1.23 -1.86 -2.22 -2.43 -3.87 -0.30 -0.88 -0.37 -1.34 -0.41 -2.82 -0.08 -2.27 0.12 -3.28 1 -5.05 1.75 -3.54 5.16 -5.58 9.30 -5.58 2.82 0 5.43 0.85 7.06 2.30 l0.45 0.39 -1.26 1.51 c-0.70 0.83 -1.29 1.54 -1.31 1.56 -0.01 0.03 -0.45 -0.22 -0.93 -0.55 -0.50 -0.33 -1.36 -0.76 -1.94 -0.94 -0.91 -0.30 -1.19 -0.34 -2.35 -0.30 -1.15 0.04 -1.43 0.09 -2.19 0.45 -2.17 1.04 -3.41 3.07 -3.43 5.59 0 1.36 0.18 2.26 0.71 3.31 1.44 2.89 5.31 3.95 8.58 2.35 l0.71 -0.34 0 -1.50 0 -1.48 -2.17 0 -2.17 0 0 -1.84 0 -1.84 4.27 0 4.27 0 0 4.25 0 4.25 -0.98 0.67 c-1.18 0.83 -3.10 1.73 -4.27 2.05 -0.84 0.22 -4.24 0.39 -4.99 0.25z"></path>
  <path d="M189.58 21.65 c-2.10 -0.34 -4.19 -1.18 -5.68 -2.30 -0.46 -0.34 -0.83 -0.66 -0.83 -0.71 0 -0.04 0.55 -0.73 1.22 -1.54 l1.21 -1.44 0.72 0.51 c1.86 1.31 3.53 1.86 5.38 1.77 1.78 -0.09 2.62 -0.68 2.62 -1.85 0 -1.15 -0.70 -1.65 -3.36 -2.40 -3.28 -0.91 -4.44 -1.36 -5.45 -2.17 -1 -0.79 -1.69 -2.38 -1.69 -3.88 0 -2.77 1.67 -4.90 4.53 -5.76 1.14 -0.35 3.82 -0.31 5.25 0.07 1.19 0.31 3.20 1.26 3.85 1.81 l0.42 0.37 -1 1.44 c-0.55 0.80 -1.04 1.50 -1.10 1.55 -0.05 0.07 -0.39 -0.07 -0.75 -0.29 -1.60 -0.98 -3.03 -1.46 -4.44 -1.46 -0.98 0 -1.78 0.28 -2.20 0.76 -0.34 0.38 -0.42 1.18 -0.18 1.76 0.28 0.66 1 1 3.60 1.73 3.37 0.96 4.58 1.55 5.67 2.78 0.79 0.91 1.12 2.06 1.04 3.67 -0.07 1.09 -0.13 1.36 -0.55 2.20 -0.79 1.59 -2.17 2.66 -4.08 3.16 -0.97 0.26 -3.15 0.35 -4.19 0.20z"></path>
  <path d="M22.70 20.41 l0 -1.12 -10.83 0 -10.83 0 0 -7.48 0 -7.48 10.83 0 10.83 0 0 -1.25 0 -1.25 1.97 0 1.96 0 4.54 5.97 c2.51 3.28 4.61 6 4.67 6.05 0.07 0.04 0.12 -2.36 0.12 -5.97 l0 -6.05 2.10 0 2.10 0 0 9.84 0 9.84 -1.80 0 -1.81 -0.01 -4.72 -6.22 c-2.60 -3.43 -4.76 -6.22 -4.82 -6.23 -0.07 0 -0.10 2.81 -0.10 6.23 l0 6.23 -2.10 0 -2.10 0 0 -1.12z m0 -8.60 l0 -5.77 -9.97 0 -9.97 0 0 5.77 0 5.77 9.97 0 9.97 0 0 -5.77z"></path>
  <path d="M7.22 12.34 l0 -1.84 -0.72 0 -0.72 0 0 -0.59 0 -0.59 2.10 0 2.10 0 0 0.59 0 0.59 -0.72 0 -0.72 0 0 1.84 0 1.84 -0.66 0 -0.66 0 0 -1.84z"></path>
  <path d="M11.15 11.75 l0 -2.43 0.59 0 0.59 0 0 0.92 0 0.92 0.92 0 0.92 0 0 -0.92 0 -0.92 0.66 0 0.66 0 0 2.43 0 2.43 -0.66 0 -0.66 0 0 -0.92 0 -0.92 -0.92 0 -0.92 0 0 0.92 0 0.92 -0.59 0 -0.59 0 0 -2.43z"></path>
  <path d="M16.80 11.75 l0 -2.43 1.97 0 1.97 0 0 0.59 0 0.59 -1.31 0 -1.31 0 0 0.39 0 0.39 1.18 0 1.18 0 0 0.52 0 0.52 -1.18 0 -1.18 0 0 0.39 0 0.39 1.31 0 1.31 0 0 0.52 0 0.52 -1.97 0 -1.97 0 0 -2.43z"></path>
  <path d="M44.88 11.68 l0 -9.84 7.41 0 7.41 0 0 1.90 0 1.90 -5.31 0 -5.31 0 0 2.03 0 2.03 4.66 0 4.66 0 0 1.90 0 1.90 -4.66 0 -4.66 0 0 2.10 0 2.10 5.38 0 5.38 0 0 1.90 0 1.90 -7.48 0 -7.48 0 0 -9.84z"></path>
  <path d="M62.34 21.48 c0 -0.03 1.54 -2.28 3.40 -5.01 l3.41 -4.97 -0.24 -0.33 c-0.41 -0.58 -6.13 -8.99 -6.23 -9.16 -0.08 -0.13 0.43 -0.17 2.38 -0.17 l2.47 0 2.03 3.16 c1.12 1.73 2.06 3.18 2.10 3.20 0.04 0.03 1.01 -1.39 2.17 -3.16 l2.10 -3.20 2.40 0 2.40 0 -1.23 1.80 c-4.71 6.88 -5.33 7.82 -5.25 7.95 0.05 0.09 1.56 2.31 3.35 4.93 1.80 2.62 3.29 4.82 3.33 4.88 0.04 0.07 -0.98 0.12 -2.40 0.12 l-2.47 0 -2.19 -3.35 c-1.21 -1.84 -2.24 -3.35 -2.30 -3.35 -0.05 0.01 -1.09 1.51 -2.30 3.35 l-2.19 3.35 -2.38 0 c-1.30 0 -2.36 -0.01 -2.36 -0.04z"></path>
  <path d="M88.85 13.65 l0 -7.87 -2.95 0 -2.95 0 0 -1.97 0 -1.97 8.07 0 8.07 0 0 1.97 0 1.97 -2.95 0 -2.95 0 0 7.87 0 7.87 -2.17 0 -2.17 0 0 -7.87z"></path>
  <path d="M102.49 11.67 l0 -9.86 4.83 0.07 c5.28 0.05 5.58 0.09 7.23 0.89 1.60 0.79 2.90 2.48 3.28 4.29 0.21 0.98 0.18 2.60 -0.05 3.50 -0.60 2.30 -2.40 3.98 -5.01 4.67 -0.80 0.21 -1.57 0.29 -3.48 0.34 l-2.47 0.08 0 2.93 0 2.94 -2.17 0 -2.17 0 0 -9.86z m9.03 -0.05 c1.36 -0.41 2.11 -1.46 2.13 -2.93 0 -1.04 -0.22 -1.56 -0.91 -2.15 -0.77 -0.66 -1.26 -0.76 -3.74 -0.76 l-2.18 0 0 3.02 0 3.02 2.01 0 c1.43 0 2.20 -0.05 2.69 -0.20z"></path>
  <path d="M119.69 21.43 c0 -0.07 1.88 -4.51 4.16 -9.92 l4.17 -9.80 1.97 0.03 1.97 0.04 4.16 9.78 c2.28 5.38 4.16 9.82 4.17 9.88 0 0.05 -0.98 0.08 -2.19 0.07 l-2.20 -0.04 -0.46 -1.13 c-0.25 -0.62 -0.66 -1.61 -0.89 -2.20 l-0.45 -1.06 -4.19 0.03 -4.20 0.04 -0.89 2.17 -0.88 2.17 -2.13 0.04 c-1.17 0.01 -2.13 -0.01 -2.13 -0.07z m12.83 -8.28 c-0.01 -0.07 -0.60 -1.48 -1.29 -3.15 -0.68 -1.68 -1.27 -3.04 -1.31 -3.04 -0.05 0 -2.10 4.84 -2.60 6.18 -0.03 0.07 1.13 0.12 2.60 0.12 1.46 0 2.62 -0.05 2.60 -0.10z"></path>
  <path d="M165.49 11.68 l0 -9.84 7.35 0 7.35 0 0 1.90 0 1.90 -5.25 0 -5.25 0 0 2.03 0 2.03 4.66 0 4.66 0 0 1.90 0 1.90 -4.66 0 -4.66 0 0 2.10 0 2.10 5.31 0 5.31 0 0 1.90 0 1.90 -7.41 0 -7.41 0 0 -9.84z"></path>
 </g></svg>